<?xml version="1.0" encoding="UTF-8"?>
<!DOCTYPE svg PUBLIC "-//W3C//DTD SVG 1.1//EN" "http://www.w3.org/Graphics/SVG/1.1/DTD/svg11.dtd">
<!-- Creator: CorelDRAW 2019 (64 Bit) -->
<svg xmlns="http://www.w3.org/2000/svg" xml:space="preserve" width="110mm" height="110mm" version="1.1" style="shape-rendering:geometricPrecision; text-rendering:geometricPrecision; image-rendering:optimizeQuality; fill-rule:evenodd; clip-rule:evenodd"
viewBox="0 0 11000 11000"
 xmlns:xlink="http://www.w3.org/1999/xlink">
 <defs>
  <style type="text/css">
   <![CDATA[
    .fil0 {fill:url(#id0)}
   ]]>
  </style>
  <linearGradient id="id0" gradientUnits="userSpaceOnUse" x1="1452.17" y1="1105.42" x2="4474.19" y2="10786.27">
   <stop offset="0" style="stop-opacity:1; stop-color:#FF945B"/>
   <stop offset="0.368627" style="stop-opacity:1; stop-color:#FF872E"/>
   <stop offset="1" style="stop-opacity:1; stop-color:#FF7900"/>
  </linearGradient>
 </defs>
 <g id="Camada_x0020_1">
  <metadata id="CorelCorpID_0Corel-Layer"/>
  <path class="fil0" d="M2604 1733.69c0,-171.68 280.4,-71.44 450.25,-31.39 185.56,43.75 346.55,73.08 534.2,120.25 725.83,182.47 1801.71,463.83 2453.48,792.59 416.99,210.34 402.5,188.32 837.58,445.14 1597.64,943.1 2292.02,2971.85 1061.02,4612.05 -115.44,153.82 -408.53,503.08 -559.24,618.77 -72.77,55.85 -54.06,63.05 -169.96,65.63 0,-360.21 313.1,-957.11 -350.81,-1952.86 -61.81,-92.69 -111.29,-166.47 -172.21,-246.63 -66.51,-87.49 -130.99,-144 -205.95,-239.08 -168.63,-213.86 -749.87,-617.23 -1007.14,-746.78 -220.63,-111.11 -405.5,-157.36 -638.75,-251.31 -244.68,-98.54 -390.46,-151.74 -564.4,-325.65 -121.54,-121.5 -280.63,-382.06 -280.63,-609.42 0,-250.44 1682.07,421.03 1731.51,441.26 310.9,127.22 813.74,441.04 1050.3,677.45 179.68,179.56 185.69,268.73 333.36,268.73 126.63,0 209.43,-82.8 209.43,-209.43 0,-361.21 -911.38,-1048.45 -1251.41,-1261.67 -805.82,-505.3 -1224.91,-616.65 -2099.71,-963.12 -286.7,-113.55 -573.64,-274.24 -805.37,-477.35 -59.13,-51.82 -83.86,-60.77 -143.89,-117.89 -47.43,-45.13 -71.04,-69.29 -112.67,-122.93 -51.93,-66.89 -73.55,-84.11 -119.94,-141.83 -53.72,-66.84 -179.05,-241.55 -179.05,-344.53zm-620.19 -1230.36l96.64 0c233.31,0 2453.74,566.14 2608.7,611.19 956.05,277.91 1433.48,454.36 2304.34,889.37 344.19,171.92 918.77,573.08 1192.99,848.89 222.47,223.78 363.79,350.02 558.35,619.65 63.99,88.69 111.95,166.14 168.39,250.47 373.24,557.8 627.95,1499.02 627.95,2146.92 0,739.16 -149.59,1199.24 -462.1,1815.4 -118.09,232.84 -378.42,612.36 -552.5,808.74l-536.2 537.11c-55.73,49.53 -71.93,76.6 -135.62,126.15 -107.2,83.41 -180.52,151.48 -287.97,235.6 -394.87,309.07 -1720.72,1110.51 -2083.2,1110.51l-279.87 0c-191.24,-16.31 -374.58,-95.45 -374.58,-418.85 0,-280.09 216.17,-428.91 396.59,-572 216.05,-171.33 669.91,-790.5 806.1,-1052.53 195.97,-377.03 210.92,-586.99 210.92,-993.27 0,-669.47 -750.4,-1244.2 -1319.75,-1481.3 -684.96,-285.24 -1206.06,-425.76 -1637.37,-1137.48 -91.68,-151.28 -155.13,-304.87 -213.91,-492.9 -200.38,-640.99 92.66,-663.89 -410.6,-1003.01 -666.33,-449 -1208.94,-1459.04 -1208.94,-2246.57 0,-555.96 279.85,-599.46 531.64,-602.09z"/>
 </g>
</svg>
