<?xml version="1.0" encoding="UTF-8" standalone="no"?>
<!-- Created with Inkscape (http://www.inkscape.org/) -->

<svg
   width="146.5005mm"
   height="24.59111mm"
   viewBox="0 0 146.5005 24.59111"
   version="1.1"
   id="svg5"
   xmlns="http://www.w3.org/2000/svg"
   xmlns:svg="http://www.w3.org/2000/svg">
  <defs
     id="defs2">
    <clipPath
       clipPathUnits="userSpaceOnUse"
       id="clipPath1171">
      <path
         style="fill:none;stroke:#000000;stroke-width:0.264583px;stroke-linecap:butt;stroke-linejoin:miter;stroke-opacity:1"
         d="m 37.357365,76.945319 c 102.050475,0 102.749615,-0.274042 102.749615,-0.274042 l -0.58321,73.007673 H 39.197177 Z"
         id="path1173" />
    </clipPath>
  </defs>
  <g
     id="layer1"
     transform="translate(223.42596,233.61528)">
    <path
       style="fill:#000000;stroke-width:0.264583"
       id="path21"
       d="" />
    <path
       d="m -203.75324,-233.61528 -14.7545,11.31217 h -2.95328 l -1.96494,1.96952 h 4.91822 l 14.7545,11.30942 h 4.92168 l -9.83975,-11.30942 h 9.79456 v -1.96952 h -9.79456 l 9.83975,-11.31217 h -4.92168"
       style="fill:#273a94;fill-opacity:1;fill-rule:nonzero;stroke:none;stroke-width:0.0352778"
       id="path2996" />
    <path
       d="m -189.17067,-224.4673 v 1.8583 h 8.80971 v 2.58889 h -8.80971 v 1.88242 h 9.68107 v 2.9815 h -13.19837 v -12.3137 h 13.1899 v 3.00259 z m 11.43085,9.31111 v -12.3137 h 5.91643 l 4.1402,7.68889 4.14197,-7.68889 h 6.01839 v 12.3137 h -3.52425 v -8.76169 h -0.14711 l -4.74945,8.76169 h -3.47592 l -4.72087,-8.76857 h -0.0871 v 8.76857 z m 21.99146,0 v -12.3137 h 10.37237 c 2.58234,0 3.8294,1.1232 3.8294,3.44081 0,1.32154 -0.5341,2.1318 -1.68945,2.60199 1.45909,0.26088 2.09374,1.17037 2.09374,2.92805 0,2.37575 -1.14512,3.34285 -3.69641,3.34285 z m 10.59744,-8.5332 c 0,-0.61365 -0.36724,-1.0184 -0.90628,-1.0184 h -6.17361 v 2.03222 h 6.17361 c 0.58773,0 0.90628,-0.35582 0.90628,-1.01382 m 0.37924,4.60333 c 0,-0.66008 -0.37924,-1.08218 -0.96838,-1.08218 h -6.49075 v 2.21174 h 6.49075 c 0.61772,0 0.96838,-0.40333 0.96838,-1.12956 m 31.27199,-1.08218 -2.35867,-4.35391 -2.30752,4.35391 z m -11.309,5.01205 6.64281,-12.3137 h 4.73286 l 6.51722,12.3137 h -4.07988 l -1.17016,-2.04858 h -7.40586 l -1.18675,2.04858 z m 36.338581,-9.24429 v 3.01032 h 6.6982 c 0.98319,0 1.26682,-0.4579 1.26682,-1.62263 0,-0.94848 -0.36407,-1.38769 -1.26682,-1.38769 z m 11.54466,0.96146 c 0,2.03235 -0.47096,3.04864 -1.91841,3.41891 1.20721,0.31143 1.82421,1.08701 1.82421,2.33966 v 2.52426 h -3.51543 v -1.88005 c 0,-1.05213 -0.4258,-1.27191 -1.58785,-1.27191 h -6.34718 v 3.15196 h -3.53554 v -12.3137 h 10.35897 c 3.4858,0 4.72123,0.82938 4.72123,4.03087 m -59.334051,-0.96146 v 3.01032 h 6.70313 c 0.9846,0 1.26859,-0.4579 1.26859,-1.62263 0,-0.94848 -0.36407,-1.38769 -1.26859,-1.38769 z m 11.54782,0.96146 c 0,2.03235 -0.47095,3.04864 -1.91487,3.41891 1.20191,0.31143 1.81786,1.08701 1.81786,2.33966 v 2.52426 h -3.50908 v -1.88005 c 0,-1.05213 -0.42721,-1.27191 -1.5875,-1.27191 h -6.35423 v 3.15196 h -3.53025 v -12.3137 h 10.36002 c 3.48263,0 4.71805,0.82938 4.71805,4.03087 m 21.31202,-1.02828 v 1.8583 h 8.809921 v 2.58889 h -8.809921 v 1.88242 h 9.674571 v 2.9815 H -106.9158 v -12.3137 h 13.187541 v 3.00259 h -9.671401"
       style="fill:#273a94;fill-opacity:1;fill-rule:nonzero;stroke:none;stroke-width:0.0352778"
       id="path2998" />
  </g>
</svg>
