<?xml version="1.0" encoding="UTF-8"?>
<!DOCTYPE svg PUBLIC "-//W3C//DTD SVG 1.1//EN" "http://www.w3.org/Graphics/SVG/1.1/DTD/svg11.dtd">
<!-- Creator: CorelDRAW 2019 (64 Bit) -->
<svg xmlns="http://www.w3.org/2000/svg" xml:space="preserve" width="110mm" height="110mm" version="1.1" style="shape-rendering:geometricPrecision; text-rendering:geometricPrecision; image-rendering:optimizeQuality; fill-rule:evenodd; clip-rule:evenodd"
viewBox="0 0 11000 11000"
 xmlns:xlink="http://www.w3.org/1999/xlink">
 <defs>
  <style type="text/css">
   <![CDATA[
    .fil0 {fill:#2E9E41}
    .fil1 {fill:#CD181D}
   ]]>
  </style>
 </defs>
 <g id="Camada_x0020_1">
  <metadata id="CorelCorpID_0Corel-Layer"/>
  <g id="_2265127601424">
   <path class="fil0" d="M7042.41 5970.44l0 1744.87c0,120.24 120.85,208.63 246.57,208.63l1687.97 0c135.14,0 227.59,-123.28 227.59,-265.53l0 -1650.04c0,-148.43 -98.13,-246.56 -246.56,-246.56l-1706.94 0c-110.82,0 -208.63,97.81 -208.63,208.63z"/>
   <path class="fil0" d="M7042.41 849.62l0 1706.94c0,110.82 97.81,208.63 208.63,208.63l1744.87 0c120.24,0 208.63,-120.85 208.63,-246.56l0 -1650.04c0,-165.94 -99.59,-265.52 -265.53,-265.52l-1631.07 0c-158.87,0 -265.53,85.74 -265.53,246.55z"/>
   <path class="fil0" d="M4463.04 6008.37l0 1669.01c0,157.73 123.17,246.56 227.59,246.56l1706.94 0c102.3,0 227.59,-87.28 227.59,-246.56l0 -1669.01c0,-129.53 -87.09,-246.56 -208.62,-246.56l-1744.87 0c-121.54,0 -208.63,117.03 -208.63,246.56z"/>
   <path class="fil0" d="M1883.67 5989.41l0 1669c0,142.25 92.45,265.53 227.59,265.53l1687.97 0c148.44,0 246.56,-98.13 246.56,-246.56l0 -1706.94c0,-110.82 -97.81,-208.63 -208.63,-208.63l-1706.94 0c-157.73,0 -246.55,123.17 -246.55,227.6z"/>
   <path class="fil0" d="M4463.04 8587.75l0 1687.97c0,159.74 145.1,227.59 303.46,227.59l1555.21 0c78.92,0 165.75,-17.46 213.16,-52.36 41.79,-30.75 90.29,-107.97 90.29,-175.23l0 -1687.97c0,-137.16 -75.85,-246.56 -208.62,-246.56l-1744.87 0c-132.78,0 -208.63,109.4 -208.63,246.56z"/>
   <path class="fil0" d="M1883.67 3410.03l0 1706.94c0,102.3 87.28,227.59 246.55,227.59l1669.01 0c129.54,0 246.56,-87.09 246.56,-208.62l0 -1744.87c0,-121.54 -117.02,-208.63 -246.56,-208.63l-1687.97 0c-113.93,0 -227.59,113.66 -227.59,227.59z"/>
   <path class="fil0" d="M1883.67 8587.75l0 1650.04c0,188.83 113.41,265.52 303.45,265.52l1555.21 0c178.98,0 303.46,-67.23 303.46,-246.56l0 -1706.93c0,-110.82 -97.81,-208.63 -208.63,-208.63l-1744.87 0c-121.53,0 -208.62,117.02 -208.62,246.56z"/>
   <path class="fil0" d="M4463.04 830.66l0 1687.97c0,131.72 80.37,246.56 208.63,246.56l1744.87 0c121.53,0 208.62,-117.02 208.62,-246.56l0 -1687.97c0,-135.14 -123.27,-227.59 -265.52,-227.59l-1631.07 0c-142.25,0 -265.53,92.45 -265.53,227.59z"/>
   <path class="fil0" d="M4463.04 3429l0 1669c0,148.44 98.12,246.56 246.56,246.56l1669 0c148.44,0 246.56,-98.12 246.56,-246.56l0 -1669c0,-148.44 -98.12,-246.56 -246.56,-246.56l-1669 0c-148.44,0 -246.56,98.12 -246.56,246.56z"/>
   <path class="fil1" d="M1788.84 1608.26c0,404.92 69.13,650.02 355.24,934.44 748.57,744.14 2015.5,158.79 2015.5,-858.57 0,-393.41 -195.3,-710.13 -479.8,-942.64 -513.2,-419.42 -1416.19,-290.32 -1777.37,430.34 -59.75,119.22 -113.57,258.02 -113.57,436.43z"/>
  </g>
 </g>
</svg>
