<svg id="Camada_1" data-name="Camada 1" xmlns="http://www.w3.org/2000/svg" viewBox="0 0 547.49 547.49"><defs><style>.cls-1{fill:#4daf9a;}.cls-2{fill:#5f0684;}</style></defs><path class="cls-1" d="M103.58,119a5,5,0,0,1,5,5v299.6a5,5,0,0,1-5,4.95h-46a5,5,0,0,1-5-4.95V123.94a5,5,0,0,1,5-5Z"/><path class="cls-1" d="M252.8,426.91,111.62,273.16a4.86,4.86,0,0,1-.09-6.49L238,120.68A4.9,4.9,0,0,1,241.7,119h47.6a4.88,4.88,0,0,1,3.69,8.08L178,259.7a4.88,4.88,0,0,0,.07,6.48L317.46,420.34a4.88,4.88,0,0,1-3.62,8.15H256.4A4.88,4.88,0,0,1,252.8,426.91Z"/><path class="cls-2" d="M469.81,322.52H446.08v34.85A25,25,0,0,1,421,382.42H388.89v21a25.06,25.06,0,0,0,25.05,25.05h55.87a25.06,25.06,0,0,0,25.05-25.05V347.57A25.06,25.06,0,0,0,469.81,322.52Z"/><path class="cls-1" d="M413.94,322.52h32.14v-21A25,25,0,0,0,421,276.45H365.16a25.06,25.06,0,0,0-25.05,25.05v55.87a25,25,0,0,0,25.05,25.05h23.73V347.57A25.06,25.06,0,0,1,413.94,322.52Z"/></svg>