<?xml version="1.0" encoding="UTF-8"?>
<!DOCTYPE svg PUBLIC "-//W3C//DTD SVG 1.1//EN" "http://www.w3.org/Graphics/SVG/1.1/DTD/svg11.dtd">
<!-- Creator: CorelDRAW 2019 (64 Bit) -->
<svg xmlns="http://www.w3.org/2000/svg" xml:space="preserve" width="110mm" height="110mm" version="1.1" style="shape-rendering:geometricPrecision; text-rendering:geometricPrecision; image-rendering:optimizeQuality; fill-rule:evenodd; clip-rule:evenodd"
viewBox="0 0 11000 11000"
 xmlns:xlink="http://www.w3.org/1999/xlink">
 <defs>
  <style type="text/css">
   <![CDATA[
    .fil5 {fill:#5B0B19}
    .fil2 {fill:#75101D}
    .fil4 {fill:#921A25}
    .fil1 {fill:#AB1F2A}
    .fil3 {fill:#CA2039}
    .fil0 {fill:#E01D38}
   ]]>
  </style>
 </defs>
 <g id="Camada_x0020_1">
  <metadata id="CorelCorpID_0Corel-Layer"/>
  <g id="_2265127551200">
   <path class="fil0" d="M496.67 9826.89c51.61,-22.57 135.96,-76.28 188.6,-108.15 448.91,-271.72 910.89,-532 1358.06,-804.11l1350.39 -800.96c62.27,-36.61 139.95,-90.03 203.93,-114.4l8.33 -11.67 1848.49 -6682.09 34.33 -122.52c-1.9,1.82 -4.48,2.33 -5.24,5.92 -0.75,3.57 -4.12,4.63 -5.14,5.95 -10.54,13.68 -5.4,6.41 -13.68,18.67l-2241.01 3881.55c-28.48,52.19 -51.41,86.21 -79.9,138.4l-623.7 1081.08c-52.02,95.23 -103.59,174.47 -155.92,270.27 -52.02,95.23 -103.6,174.47 -155.93,270.27 -162.73,297.88 -374.02,637.86 -544.16,942.32 -27.92,49.96 -51.78,87.81 -79.54,138.76l-312.82 539.57c-204.81,338.22 -418.3,734.12 -623.59,1081.19 -28.21,47.69 -48.57,83.95 -75.52,132.38 -24.51,44.06 -62.29,91.66 -75.98,137.57z"/>
   <path class="fil0" d="M5522.16 1290.38c33.37,32.26 227.31,781.33 238.63,823.52 224.71,837.62 470.58,1665.75 698.56,2514.13 224.75,836.35 466.53,1675.58 697.48,2514.39 75.2,273.11 170.02,565.47 232.19,842.13l7.33 12.81c64.1,25.42 136.13,76.57 196.78,112.23l2903.54 1717.3c-20.76,-69.6 -949.2,-1636.09 -1087.91,-1890.71l-467.78 -810.81c-140.88,-258.61 -326.37,-551.98 -467.77,-810.81 -210.51,-385.35 -494.7,-832.95 -700.03,-1212.65l-391.73 -678.96c-55.56,-92.46 -100.38,-177.81 -155.93,-270.27l-467.85 -810.73c-103.49,-185.21 -208.07,-354.9 -311.85,-540.54 -52.83,-94.53 -102.65,-174.97 -155.92,-270.27l-467.77 -810.82c-26.1,-46.9 -50.25,-85.77 -76.52,-131.39l-155.92 -270.27c-24.43,-42.43 -52.54,-95.62 -79.99,-135.67l-1.71 8.72 14.17 98.67z"/>
   <path class="fil1" d="M5488.8 1182.99l-34.33 122.52c20.6,32.6 -10.69,142.31 -21.36,199.01 -11.96,63.6 -23.52,127.32 -35.36,192.69l-792.93 4311.13c-34.64,183.21 -290.18,1496.73 -278.15,1563.44l-4.63 14.54 1094.09 1255.17c37.02,39.83 48.26,64.17 80.54,85.79l0 -6777.55c0,-41.54 -14.77,-916.45 11.32,-958.02l1.71 -8.72 -9.02 -22.64c-18.7,14.12 -8.89,0.14 -11.88,22.64z"/>
   <path class="fil2" d="M5496.67 8927.28l590.97 -677.23c24.5,-30.57 45.81,-49.63 72.78,-83.14l107.98 -120.71c18.45,-20.76 18.17,-25.76 36.66,-46.51l77.73 -88.58c60.54,-60.87 247.52,-304.78 306.92,-337.83 -38,-58.35 -264.92,-1373.41 -300.07,-1565.94l-797 -4327.29c-19.54,-105.87 -64.92,-292.77 -70.48,-389.67l-14.17 -98.67c-26.09,41.57 -11.32,916.48 -11.32,958.02l0 6777.55z"/>
   <path class="fil3" d="M7900.52 9831.64c33.17,25.02 1260.65,10.39 1296.77,10.39l1267.7 -0.72c30.38,-6.37 14.11,1.82 31.68,-14.42l-2903.54 -1717.3c-60.65,-35.66 -132.68,-86.81 -196.78,-112.23l504.17 1834.28z"/>
   <path class="fil3" d="M496.67 9826.89c34.16,31.58 259.5,15.14 311.85,15.14l2284.3 -10.39 504.83 -1832.37c-63.98,24.37 -141.66,77.79 -203.93,114.4l-1350.39 800.96c-447.17,272.11 -909.15,532.39 -1358.06,804.11 -52.64,31.87 -136.99,85.58 -188.6,108.15z"/>
   <path class="fil4" d="M6689.71 7573.28l699.31 411.27c-62.17,-276.66 -156.99,-569.02 -232.19,-842.13 -230.95,-838.81 -472.73,-1678.04 -697.48,-2514.39 -227.98,-848.38 -473.85,-1676.51 -698.56,-2514.13 -11.32,-42.19 -205.26,-791.26 -238.63,-823.52 5.56,96.9 50.94,283.8 70.48,389.67l797 4327.29c35.15,192.53 262.07,1507.59 300.07,1565.94z"/>
   <path class="fil4" d="M3605.98 7987.6c121.44,-64.46 239.87,-142.48 355.8,-210.4 75.35,-44.14 298.15,-188.75 364.89,-205.42 -12.03,-66.71 243.51,-1380.23 278.15,-1563.44l792.93 -4311.13c11.84,-65.37 23.4,-129.09 35.36,-192.69 10.67,-56.7 41.96,-166.41 21.36,-199.01l-1848.49 6682.09z"/>
   <path class="fil5" d="M7900.52 9831.64l-504.17 -1834.28 -7.33 -12.81 -699.31 -411.27c-5.33,44.03 71.67,164.28 95.81,210.68 14.59,28.05 27.31,44.44 41.84,72.5l532.02 985.65c15.06,24.73 22.09,40.39 35.98,67.97l194.19 356.75c26.97,54.9 49.22,87.19 76.19,142.1l234.78 422.71z"/>
   <path class="fil5" d="M3605.98 7987.6l-8.33 11.67 -504.83 1832.37 460.45 -841.54c52.93,-91.14 102.15,-190.65 155,-281.58 104.17,-179.26 233.3,-450.88 339.11,-627.63 53.32,-89.07 239.61,-468.9 274.66,-494.57l4.63 -14.54c-66.74,16.67 -289.54,161.28 -364.89,205.42 -115.93,67.92 -234.36,145.94 -355.8,210.4z"/>
  </g>
 </g>
</svg>
