<?xml version="1.0" encoding="UTF-8" standalone="no"?>
<!-- Created with Inkscape (http://www.inkscape.org/) -->

<svg
   width="95.983414mm"
   height="52.838448mm"
   viewBox="0 0 95.983414 52.838448"
   version="1.1"
   id="svg5"
   xmlns="http://www.w3.org/2000/svg"
   xmlns:svg="http://www.w3.org/2000/svg">
  <defs
     id="defs2">
    <clipPath
       clipPathUnits="userSpaceOnUse"
       id="clipPath1171">
      <path
         style="fill:none;stroke:#000000;stroke-width:0.264583px;stroke-linecap:butt;stroke-linejoin:miter;stroke-opacity:1"
         d="m 37.357365,76.945319 c 102.050475,0 102.749615,-0.274042 102.749615,-0.274042 l -0.58321,73.007673 H 39.197177 Z"
         id="path1173" />
    </clipPath>
  </defs>
  <g
     id="layer1"
     transform="translate(169.66725,160.12515)">
    <path
       style="fill:#ead81d;stroke-width:0.264583"
       d="m -141.57148,-107.77419 c -12.31201,-3.05642 -21.12428,-10.54009 -25.53675,-21.68666 -0.74345,-1.87808 -2.55876,-7.39627 -2.55902,-7.77896 -3.7e-4,-0.54516 8.91261,0.444 14.55191,1.61495 7.65193,1.58886 16.37068,5.55145 20.37093,9.25839 0.74824,0.69338 1.22589,0.65929 1.12284,-0.0801 -0.0384,-0.27538 0.0576,-2.46522 0.21332,-4.86631 0.65556,-10.10922 4.08075,-19.07214 10.54223,-27.58652 1.37203,-1.80793 1.19158,-1.88711 3.69185,1.62002 3.98854,5.59476 6.36547,10.77411 8.12818,17.71141 0.68953,2.71371 1.6992,10.08316 1.70194,12.42227 0.002,1.71756 -0.0228,1.71923 1.96146,-0.13229 4.98478,-4.65142 12.095934,-7.67021 22.514134,-9.55759 3.84783,-0.69708 10.91514,-1.50973 11.14351,-1.28136 0.41261,0.41261 -2.3777,8.6095 -4.02744,11.83114 -5.10926,9.97743 -13.86563,16.54246 -24.512434,18.37803 -1.79198,0.30895 -2.18942,0.28961 -1.31829,-0.0642 0.37415,-0.15194 10.743464,-6.27798 11.151974,-6.58843 0.83231,-0.6325 -1.77914,0.0664 -4.47586,1.19791 -1.11411,0.46746 -7.187974,2.72303 -8.731254,3.24241 l -1.45521,0.48975 1.05833,-0.94797 c 0.58208,-0.52139 2.89032,-2.5127 5.12943,-4.42515 7.773884,-6.63979 8.636674,-7.37784 10.084114,-8.62617 2.81361,-2.42658 5.87253,-5.03989 6.43901,-5.501 1.7277,-1.40634 1.39728,-1.84788 -0.37632,-0.50289 -0.64234,0.48712 -3.13243,2.29301 -5.53352,4.0131 -2.4011,1.72009 -5.08,3.64925 -5.95313,4.28702 -0.87312,0.63777 -3.790154,2.75121 -6.482294,4.69654 -2.69213,1.94533 -5.19245,3.76593 -5.55625,4.04579 -1.34214,1.03246 -3.49489,2.48356 -3.36633,2.26914 0.0729,-0.12167 0.92713,-1.87703 1.89817,-3.90081 0.97104,-2.02378 2.59982,-5.39236 3.61951,-7.48575 2.64639,-5.43295 2.40222,-5.43165 -1.51228,0.008 -0.71529,0.99398 -2.19561,3.01805 -3.28959,4.49792 -1.09399,1.47987 -2.51023,3.43481 -3.14719,4.34432 -0.63697,0.9095 -1.1762,1.65364 -1.19829,1.65364 -0.055,0 0.49385,-3.56378 1.01867,-6.61458 0.87131,-5.06503 1.21611,-7.05535 1.5699,-9.06198 0.32042,-1.81736 0.15345,-2.82826 -0.2622,-1.5875 -0.21105,0.63001 -1.35685,3.68992 -1.8081,4.82865 -0.33728,0.8511 -0.99749,2.58801 -2.71542,7.14375 -0.35668,0.94588 -0.91946,2.41488 -1.25061,3.26444 l -0.6021,1.54465 -0.17146,-1.67694 c -0.0943,-0.92233 -0.34896,-5.36789 -0.5659,-9.87904 -0.21695,-4.51114 -0.50641,-9.80942 -0.64326,-11.77396 -0.13685,-1.96453 -0.3284,-5.80429 -0.42567,-8.53281 -0.16051,-4.5023 -0.37092,-5.7847 -0.73803,-4.49792 -0.0727,0.25467 -0.20563,3.0824 -0.2955,6.28386 -0.0899,3.20146 -0.3311,9.33318 -0.53607,13.62604 -0.20497,4.29286 -0.45252,9.82927 -0.55012,12.30312 -0.15609,3.95656 -0.21752,4.40239 -0.51043,3.70417 -0.82396,-1.96413 -1.59041,-3.86883 -4.04025,-10.04046 -1.44113,-3.63049 -2.75175,-6.64472 -2.91249,-6.6983 -0.2076,-0.0692 -0.21872,0.15675 -0.0384,0.78005 0.13964,0.4826 0.36677,1.53231 0.50473,2.33267 0.44501,2.58169 1.21486,6.35103 2.39535,11.72816 0.31395,1.43002 0.51549,2.65536 0.44787,2.72298 -0.0676,0.0676 -1.23341,-1.34052 -2.59064,-3.1292 -2.71904,-3.58338 -8.07114,-10.44188 -8.61644,-11.04161 -0.4149,-0.45632 -0.81307,-0.1746 -0.43614,0.30859 0.14465,0.18542 1.13168,2.004 2.19342,4.04129 1.06173,2.03729 2.40652,4.59713 2.98841,5.68854 2.0073,3.76493 2.55775,4.86103 2.48015,4.93864 -0.0428,0.0428 -0.9633,-0.53253 -2.04548,-1.27856 -3.0302,-2.08896 -8.76587,-6.06283 -15.46137,-10.71217 -10.73982,-7.45772 -11.24479,-7.79605 -11.24479,-7.53408 0,0.14176 0.62508,0.77949 1.38906,1.41716 2.63891,2.20262 9.86721,8.18543 18.33019,15.17177 5.15334,4.25417 5.30792,4.38827 4.75471,4.12458 -0.29104,-0.13873 -1.24354,-0.49284 -2.11667,-0.78691 -0.87312,-0.29408 -3.67109,-1.26775 -6.21771,-2.16373 -7.93757,-2.79268 -8.24793,-2.74972 -2.85533,0.39517 2.40654,1.40347 7.0391,4.14906 7.35325,4.35806 0.51696,0.34394 0.25563,0.31028 -2.06656,-0.2662 z"
       id="path1968" />
    <path
       style="fill:#000000;stroke-width:0.264583"
       id="path21"
       d="" />
  </g>
</svg>
