<?xml version="1.0" encoding="UTF-8"?>
<!DOCTYPE svg PUBLIC "-//W3C//DTD SVG 1.1//EN" "http://www.w3.org/Graphics/SVG/1.1/DTD/svg11.dtd">
<!-- Creator: CorelDRAW 2019 (64 Bit) -->
<svg xmlns="http://www.w3.org/2000/svg" xml:space="preserve" width="110mm" height="110mm" version="1.1" style="shape-rendering:geometricPrecision; text-rendering:geometricPrecision; image-rendering:optimizeQuality; fill-rule:evenodd; clip-rule:evenodd"
viewBox="0 0 11000 11000"
 xmlns:xlink="http://www.w3.org/1999/xlink">
 <defs>
  <style type="text/css">
   <![CDATA[
    .fil0 {fill:#092268}
   ]]>
  </style>
 </defs>
 <g id="Camada_x0020_1">
  <metadata id="CorelCorpID_0Corel-Layer"/>
  <g id="_2265278928224">
   <path class="fil0" d="M3433.13 7111.1c0,33.54 82.62,99.07 107.02,123.48 44.84,44.84 319.19,337.52 353.99,337.52l2436.75 0c35.95,0 343.44,-327.03 392.41,-375.94 75.65,-75.56 80.79,-43.73 79.66,-183.76 -8.31,-1028.26 -0.09,-2086.72 -0.09,-3117.38 0,-163.96 -9.47,-356.5 -0.83,-516.72 3.36,-62.34 33.8,-70.54 107.85,-144.6l655.76 -650.44c48.21,-19.08 1849.82,-5.4 2069.12,-5.4 -14.17,-53.07 -459.22,-475.68 -507.65,-524.12 -176.48,-176.47 -344.91,-344.9 -521.38,-521.38l-526.86 -515.89c-35.31,-35.3 -492.23,-513.14 -529.61,-513.14l-4116.14 0 0 6607.77z"/>
   <path class="fil0" d="M502.45 3455.97l0 4105.16c0,41.27 684.73,701.19 727.18,743.65 247.82,247.82 487.6,487.59 735.42,735.41l1103.12 1103.12c46.17,46.17 341.29,359.48 375.94,359.48l1262.28 0c32.46,0 84.42,-67.95 107.02,-90.55l702.49 -702.49c269.77,-269.77 531.5,-531.5 801.27,-801.28 34.72,-34.71 66.04,-63.09 98.93,-98.65l93.15 -104.41c140.79,-140.33 1191.05,-1173.13 1202.01,-1212.8l2.65 -3619.54c-0.14,-202.28 -35.76,-110.85 222.27,-370.46 53.69,-54.02 40.59,-70.09 139.39,-69.15l2415.36 0.56c-14.13,-52.92 -46.91,-51.8 -101.69,-106.86l-219.37 -219.69c-23.81,-23.81 -84.8,-101.53 -118,-101.53l-2250.15 0c-36.99,0 -446.5,430.23 -480.22,463.75 -66.46,66.05 -70.12,38.58 -68.78,161.72 12.77,1174.55 -13.68,2383.93 0.53,3556.87 1.48,122.7 -41.78,123.4 -195.17,276.81l-1070.2 1070.19c-25.01,25.01 -95.07,112.51 -128.97,112.51l-2403.82 0c-37.16,0 -479.21,-462.74 -513.15,-496.68 -172.73,-172.73 -336.68,-338.72 -510.41,-510.39 -78.36,-77.43 -63.55,-44.22 -63.12,-189.34l0.02 -5872.37c-48.77,13.02 -298.85,282.48 -353.99,337.53 -21.45,21.41 -40.65,37.87 -59.88,60.86 -161.03,192.64 -1054.12,1064.12 -1339.6,1349.6 -25.01,25.01 -112.51,95.07 -112.51,128.97z"/>
   <path class="fil0" d="M5332.04 10502.79c701.41,0 1444.71,-8.09 2140.74,0.35 117.45,1.42 82.62,-1 232.9,-151.27l2661.77 -2661.77c26.2,-26.21 123.48,-105.34 123.48,-139.95l0 -3688.05 -2250.15 0c-25.3,0 -65.4,43.59 -80.43,62.26 -36.87,45.77 -18.36,361.3 -18.36,431.67l0 2985.57c0,374.03 39.02,306.73 -123.49,469.24 -133.04,133.04 -2647.94,2634.43 -2686.46,2691.95z"/>
  </g>
 </g>
</svg>
