<svg xmlns="http://www.w3.org/2000/svg" viewBox="0 0 848.47 541.07"><title>ControllerGuideV2</title><rect x="117.16" y="452.89" width="88.53" height="83.17" rx="20.23" style="fill:none;stroke:#fff;stroke-miterlimit:10;stroke-width:10px"/><rect x="5" y="452.69" width="88.53" height="83.17" rx="20.23" style="fill:none;stroke:#fff;stroke-miterlimit:10;stroke-width:10px"/><rect x="229.67" y="452.69" width="88.53" height="83.17" rx="20.23" style="fill:none;stroke:#fff;stroke-miterlimit:10;stroke-width:10px"/><rect x="117.34" y="344.07" width="88.53" height="83.17" rx="20.23" style="fill:none;stroke:#fff;stroke-miterlimit:10;stroke-width:10px"/><path d="M151.56,401.1l-7.75-30.58H148L151.61,386c.91,3.81,1.72,7.62,2.27,10.57H154c.5-3,1.45-6.67,2.49-10.62l4.09-15.42h4.12L168.39,386c.87,3.63,1.68,7.26,2.14,10.48h.09c.63-3.35,1.49-6.76,2.45-10.57l4-15.42h4l-8.66,30.58h-4.13l-3.86-15.93a92.66,92.66,0,0,1-2-10h-.09a97.64,97.64,0,0,1-2.36,10l-4.36,15.93Z" style="fill:#fff"/><path d="M155.52,499.91l-3.18,9.62h-4.08L158.65,479h4.76l10.44,30.58h-4.22l-3.27-9.62Zm10-3.08-3-8.81c-.68-2-1.13-3.81-1.59-5.57h-.09c-.45,1.81-1,3.67-1.54,5.53l-3,8.85Z" style="fill:#fff"/><path d="M41,505.15a14,14,0,0,0,7.08,2c4,0,6.39-2.13,6.39-5.22,0-2.86-1.63-4.49-5.76-6.08-5-1.77-8.07-4.35-8.07-8.66,0-4.77,3.94-8.3,9.89-8.3a14,14,0,0,1,6.76,1.49l-1.09,3.22a12.25,12.25,0,0,0-5.81-1.45c-4.17,0-5.76,2.5-5.76,4.58,0,2.86,1.86,4.27,6.08,5.9,5.17,2,7.8,4.49,7.8,9,0,4.72-3.49,8.8-10.71,8.8a15.79,15.79,0,0,1-7.8-2Z" style="fill:#fff"/><path d="M261.57,479.22a57.15,57.15,0,0,1,8.4-.63c5.67,0,9.7,1.31,12.38,3.81s4.31,6,4.31,11-1.54,9.07-4.4,11.88-7.58,4.4-13.52,4.4a63.16,63.16,0,0,1-7.17-.36Zm3.95,27a25.05,25.05,0,0,0,4,.23c8.44,0,13-4.72,13-13,.05-7.21-4-11.79-12.38-11.79a22.2,22.2,0,0,0-4.63.41Z" style="fill:#fff"/><polyline points="94.47 141.8 71.47 141.8 71.47 152.8 45.56 126.9 71.06 101.4 71.06 114.8 94.46 114.8" style="fill:none;stroke:#fff;stroke-miterlimit:10;stroke-width:10px"/><path d="M161.56,99.05V5c34,0,67.53,23.51,67.53,60.9V194.64c0,37.39-33.57,60.13-66.75,60.13h-1.13c-33.18,0-66.75-22.74-66.75-60.13V65.9C94.46,28.51,128,5,162,5V99.05Z" style="fill:none;stroke:#fff;stroke-miterlimit:10;stroke-width:10px"/><polyline points="229.09 141.8 252.09 141.8 252.09 152.8 277.99 126.9 252.49 101.4 252.49 114.8 229.09 114.8" style="fill:none;stroke:#fff;stroke-miterlimit:10;stroke-width:10px"/><text transform="translate(489.57 155.36)" style="font-size:112px;fill:#fff;font-family:REZ">Look At</text><text transform="translate(489.49 508.03)" style="font-size:112px;fill:#fff;font-family:REZ">Move<tspan x="253.12" y="0" style="fill!:#000"> </tspan></text></svg>