<?xml version="1.0" encoding="UTF-8"?>
<!DOCTYPE svg PUBLIC "-//W3C//DTD SVG 1.1//EN" "http://www.w3.org/Graphics/SVG/1.1/DTD/svg11.dtd">
<!-- Creator: CorelDRAW 2019 (64 Bit) -->
<svg xmlns="http://www.w3.org/2000/svg" xml:space="preserve" width="110mm" height="110mm" version="1.1" style="shape-rendering:geometricPrecision; text-rendering:geometricPrecision; image-rendering:optimizeQuality; fill-rule:evenodd; clip-rule:evenodd"
viewBox="0 0 11000 11000"
 xmlns:xlink="http://www.w3.org/1999/xlink">
 <defs>
  <style type="text/css">
   <![CDATA[
    .fil1 {fill:none}
    .fil0 {fill:#4CD8FF}
   ]]>
  </style>
 </defs>
 <g id="Camada_x0020_1">
  <metadata id="CorelCorpID_0Corel-Layer"/>
  <g id="_2265117699584">
   <g>
    <path class="fil0" d="M3569.88 9473.64c-97.71,0 -278.05,-32.91 -337.06,-71.26 -19.54,-12.7 -37.24,-28.99 -55.99,-44.02 -175.31,-140.46 -265.29,-598.15 -265.29,-859.73 0,-416.51 14.49,-565.26 93.75,-964.61 9.95,-50.15 37.56,-196.44 56.26,-235.4l639.18 110.84c134.7,19.37 543.79,72.5 685.83,72.5 8.09,30.3 74.34,113.08 93.95,139.37l739.4 902.3c-28.42,42.44 -116.18,114.01 -164.42,160.58l-453.91 354.43 -306.58 185.12 -331.08 152.26c-126.3,49.93 -223.77,97.62 -394.04,97.62zm-3066.71 -3925.03l0 -81.58c7.87,-137.59 56.06,-278.41 153.23,-423.55l100.26 -133.09c53.27,-68.18 127.02,-128.8 173.56,-176.44 186.63,-190.96 475.32,-336.02 706.55,-468.47 161.01,-92.23 873.24,-371.66 1016.43,-383.59 -3.91,-47.05 -22.71,-106.04 -33.44,-149.89 -11.41,-46.76 -19.45,-93.73 -29.75,-145.24 -124.48,-622.36 -246.94,-1846.08 398.08,-2286.7 149.03,-101.78 327,-143.21 540.12,-143.21 457.72,0 986.57,285.51 1354.85,553.53 77.55,56.43 145.24,105.33 218.26,165.07l105.47 86.21c57.33,45.05 259.7,215.31 296.46,270.22l102.2 -89.46c94.33,-94.82 196.62,-182.57 301.33,-265.37 212.2,-167.79 438.43,-338 682.58,-459.09 322.61,-160.01 563.16,-269.44 963.92,-269.44 316.88,0 591.57,190.21 730.62,452.73 36.15,68.3 68.54,129.58 95.46,204.56 167.92,467.54 162.93,1067.19 79.82,1565.31l-72.55 385.78c-7.59,32.12 -24.26,91.5 -25,124.99 53.61,25.72 286.9,92.3 357.27,117.73l418.94 164.42c365.72,149.65 920.65,476.43 1165.53,817.84 219.91,306.63 269.79,590.88 91.73,933.5 -187.29,360.36 -661.77,680.99 -1011.23,855.45 -266.64,133.11 -540.53,248.99 -823.3,343.39 -39.1,13.06 -142,50.17 -182.27,51.07 123.54,530.35 209.66,1110.68 107.24,1723.93 -58.16,348.21 -233.29,752.36 -543.26,906.76 -60.16,29.96 -101.86,50.14 -171.17,70.5 -94.38,27.7 -220.31,32.18 -326.16,32.18 -450.05,0 -942.28,-299.63 -1265.13,-518.25 -199.63,-135.17 -389.36,-295.13 -566.26,-458.74 -33.16,-30.68 -57.25,-65.32 -93.65,-89.7 -67.48,58.68 -128.88,124.46 -197.97,185.36l-210.36 172.98c-143.78,112.32 -283.97,213.97 -445.19,313.15 -589.42,362.63 -1506.93,691.52 -1954.4,-55.28 -98.08,-163.7 -150.13,-339.29 -187.31,-537.68 -52.22,-278.5 -47.01,-601.72 -22.2,-895.92 12.38,-146.93 32.06,-293.15 58.33,-425.01l84.06 -399.28c-35.02,-2.93 -62.69,-17.91 -97,-28.01 -35.33,-10.42 -55.84,-15.89 -89.48,-27.19 -61.86,-20.75 -117.13,-41.94 -172.89,-60.45 -176.75,-58.67 -337.18,-140.19 -504.9,-211.77 -107.76,-46 -206.95,-100.09 -307.26,-159.42l-288.48 -186.53c-69.87,-47.61 -139.84,-98.71 -200.53,-157.81 -79.68,-77.58 -166.68,-152.65 -234.79,-240.21 -144.67,-185.94 -235.18,-375.02 -246.37,-570.29zm5316.75 2983.36l425.1 -508.25c22.07,-28.85 379.96,-498.22 391.58,-541.76 247.79,0 905.34,-111.57 1174.42,-167.28 45.85,-9.49 110.51,-28.7 158.93,-32.73 2.72,32.68 16.9,73.33 22.98,102.01 8.75,41.22 12.9,69.32 22.21,111.14 104.95,471.55 116.83,912.94 44.16,1392.9 -30.54,201.81 -145.84,392.2 -291.65,516.67 -89.67,76.55 -222.29,72.13 -322.51,69.01 -116.23,-3.6 -231.67,-35.06 -336.76,-71.81 -306.86,-107.32 -531.14,-264.04 -775.23,-433.13 -27.71,-19.19 -47.2,-37.07 -75.2,-58.12l-365.24 -309.77c-25.12,-25.26 -44.54,-49.96 -72.79,-68.88zm-883.35 -1016.68c80.91,18.84 190.44,1.12 282.91,8.77 128.51,10.64 295.6,7.59 433.78,7.9l291.72 -8.28c61,0.31 86.76,-8.39 141.61,-8.39 -12.21,45.75 -232.01,313.09 -272.44,360.9 -37.96,44.94 -254.74,312.66 -294.24,339.11 -38.18,-25.57 -262.43,-285.03 -303.63,-338.04 -48.28,-62.1 -92.7,-112.77 -141.65,-175.03l-138.06 -186.94zm-1450.02 -1491.69c1.31,1.48 3.15,1.98 3.65,4.69l503.06 880.3c26.93,42.93 52.91,78.51 76.63,123.35 -26,-0.56 -80.73,-8.66 -112,-13.01 -44.9,-6.23 -73.77,-9.11 -117.72,-15.6l-550.07 -91.61c-37.49,-7.51 -72.86,-20.57 -111.89,-21.44 11.83,-142.19 291.57,-794.73 308.34,-866.68zm3458.39 1000.01c7.13,-26.72 53.82,-91.35 71.47,-120.19l367.53 -632.5c24.53,-43.86 45.57,-87.36 70.95,-129.04 21.73,-35.7 44.06,-105.12 73.39,-126.61l161.93 396.4c55.24,136.74 97.63,271.39 148.08,411.26 21.18,58.73 13.76,44.92 -44.75,57.51 -39.65,8.52 -81.76,17.3 -117.35,24.43 -175.77,35.14 -561.17,104.59 -731.25,118.74zm825.02 -1508.35l474.99 -1225.02 284.41 90.6c100.1,33.36 184.29,65.21 279.88,103.45 310.12,124.12 595.91,268.36 862.05,463 39.03,28.55 69.1,56.13 105.86,85.79 258.45,208.57 415.29,471.61 196.46,760.81 -50.37,66.6 -117.52,151.22 -182.15,201.18 -38.34,29.67 -67.54,58.51 -104.71,86.95 -270.96,207.27 -537.07,339.57 -856.11,477.25l-420.04 154.97c-32.87,11.06 -117.1,40.05 -148.98,42.7 -23.23,-99.7 -198.03,-557.52 -229.71,-636.96l-261.95 -604.72zm-5008.42 1266.68c-100.11,-23.31 -494.62,-161.07 -579.77,-195.22 -49.62,-19.91 -88.6,-36.52 -135.72,-55.96l-267.49 -124.19c-138.68,-80.6 -224.4,-122.2 -365.48,-217.86l-220.44 -171.24c-135.38,-136.09 -264.45,-324.16 -264.45,-527.21 0,-232.69 335.85,-503.9 512.03,-621.32l357.32 -209.34c246.7,-123.28 559.79,-248.72 821.28,-328.76 37.62,-11.52 110.48,-37.22 151.06,-40.6 6.2,26.63 16.05,52.6 23.96,76.03 66.39,196.69 115.94,358.63 197.45,560.91l190.43 459.55c12.5,29.94 20.08,43.39 33.37,75.02 12.36,29.44 30.01,46.69 25,73.68l-371.27 920.45c-18.76,51.88 -35.21,105.77 -54.13,162.53 -18.12,54.36 -40.89,110.88 -53.15,163.53zm3641.72 291.67c-61.5,0 -153.31,9.14 -209.54,15.46 -35.45,3.98 -79.32,0.43 -115.79,0.88 -47.29,0.58 -57.64,8.88 -107.73,8.95 -162.35,0.22 -295.95,8.04 -458.62,8.04l-508.62 -8.06c-42.66,-1.27 -51.24,-8.83 -99.43,-8.88 -80.88,-0.1 -135.13,-9.14 -208.72,-7.97 -90.44,1.44 -73.43,6.47 -129.9,-78.43 -29.97,-45.05 -57.04,-78.36 -84.02,-124.3l-165.81 -259.22c-55.01,-89.42 -102.36,-170.56 -156.16,-260.51 -55.11,-92.14 -100.37,-177.14 -153.04,-271.95 -36,-64.81 -285.99,-525.58 -285.99,-564.03 0,-60.93 445.31,-849.48 528.61,-988.08l234.72 -373.62c23.09,-34.47 112.61,-160.6 120.02,-188.32 44.23,0 70.22,-1.69 102.28,-6.06 37.52,-5.13 74.59,0.57 112.1,-4.54 56.4,-7.72 158.77,-8.96 219.4,-13.97 72.72,-6.02 160.15,6.37 231.68,-1.65 148.02,-16.61 521.93,-1.14 684.89,0.88l221.15 12.19c60.35,9.12 165.8,13.15 228.52,13.15l350.47 557.88c37.76,63.08 79.37,128.89 115.78,192.54l325.06 591.64c15.82,27.22 98.87,185.03 96.09,205.12 -1.37,9.88 -40.09,91.8 -45.68,102.87l-261.11 497.24c-17.86,33.28 -37.8,64.58 -55.22,94.78 -19.76,34.24 -35.95,65.91 -56.14,102.2 -118.04,212.15 -331.48,550.03 -469.25,755.77zm541.68 -3041.71c61.6,0 379.22,51.69 450.72,65.94l432.63 84.06c-7.58,90.99 -209.64,612.83 -260.68,731.01 -12.5,28.94 -32.86,74.56 -39.33,102.34l-113.78 -186.22c-13.88,-27.57 -23.47,-38.97 -36.26,-63.74 -74.86,-144.97 -198.03,-348.01 -283.77,-491.25l-111.15 -180.52c-16.29,-24.21 -25.47,-37.21 -38.38,-61.62zm-3458.39 991.68l-308.34 -841.68c97.4,-22.7 751.42,-147.05 883.35,-150 -100.03,149.38 -276.57,453.55 -364.02,610.99l-210.99 380.69zm1441.69 -1491.69c51.06,-76.26 374.5,-472.05 460.33,-564.7l114.68 -126.97c34.28,22.95 50.58,48.77 77.46,80.87l74.56 83.77c71.09,75.98 387.23,459.45 422.99,527.03 -57.11,0 -76.51,-8.76 -133.14,-8.52 -50.1,0.2 -100.22,0.01 -150.3,0.31 -60.44,0.34 -83.26,-8.89 -141.37,-8.65l-291.98 0.09c-60.42,-0.34 -83.26,8.87 -141.37,8.64 -50.1,-0.2 -100.2,-0.03 -150.3,-0.31 -60.3,-0.34 -83.07,8.44 -141.56,8.44zm2516.71 -1958.35c148.09,0 256.55,-4.26 373.11,110.22 194.33,190.88 268.57,589.97 268.57,881.45 0,320 -0.59,409.69 -47.51,735.85 -25.39,176.49 -55.73,307.46 -94.17,472.5l-173.34 -35c-207.45,-49.22 -885.36,-154.35 -1093.77,-164.58 -58.4,-2.85 -52.27,-10.62 -114.58,-102.07 -15.36,-22.53 -26.17,-36.71 -42.15,-57.85 -16.94,-22.42 -27.87,-40.09 -45.14,-63.21l-470.61 -587.73c-36.34,-39.1 -167.05,-199.44 -202.11,-222.91 20.89,-31.19 210.55,-199.37 251.23,-232.11l272.58 -219.09c64.8,-48.62 122.62,-88.08 191.21,-133.81 205.33,-136.87 221.48,-136.49 415.6,-234.41 108.27,-54.63 357.16,-147.25 511.08,-147.25zm-3066.72 2000.01c-133.91,0 -536.6,55.98 -678.57,79.79 -222.94,37.36 -430.61,71.88 -638.11,120.22l-53.56 -254.77c-19.56,-87.88 -34.49,-170.45 -46.92,-261.43 -56.23,-411.36 -96.21,-934.97 59.99,-1324.3 74.84,-186.53 198.92,-351.19 432.16,-351.19 314.27,0 556.52,105.81 813.94,244.39 146.28,78.75 455.84,284.17 591.87,399.81l225.63 191.06c41.97,41.6 108.41,95.43 126.92,123.08 -23.59,15.79 -41.31,35.97 -58.33,58.33l-681.05 835.64c-19.63,26.29 -85.88,109.07 -93.97,139.37z"/>
    <path class="fil0" d="M4603.24 5523.59c0,229.18 104.71,476.05 264.34,635.66 22.73,22.73 35.39,29.19 58.51,49.83 56.23,50.22 139.28,103.8 209.28,132.4 55.46,22.64 100.66,42.75 168.46,56.54 165.41,33.66 233.42,33.66 398.84,0 67.8,-13.79 113,-33.9 168.45,-56.54 53.93,-22.02 97.67,-49.07 143.88,-81.13 90.8,-62.98 162.22,-134.48 225.01,-225 100.7,-145.19 160.7,-332.27 163.86,-511.81 3.83,-218.47 -108.33,-479.01 -264.96,-635.61 -22.72,-22.73 -35.38,-29.19 -58.5,-49.83 -22.52,-20.11 -39.62,-33.37 -65.41,-51.27 -87.99,-61.04 -202.88,-115.41 -312.33,-137.67 -258.51,-52.6 -496.5,-11.24 -711.18,137.67 -178.69,123.96 -318.89,322.06 -362.67,537.34 -11.19,54.99 -25.58,136.2 -25.58,199.42z"/>
   </g>
   <rect class="fil1" x="490.17" y="503.33" width="9999.99" height="10000"/>
  </g>
 </g>
</svg>
