{
    "asset" : {
        "generator" : "Khronos glTF Blender I/O v1.7.33",
        "version" : "2.0"
    },
    "scene" : 0,
    "scenes" : [
        {
            "name" : "Scene",
            "nodes" : [
                0,
                1,
                2
            ]
        }
    ],
    "nodes" : [
        {
            "mesh" : 0,
            "name" : "Sphere",
            "scale" : [
                9.146459579467773,
                9.146459579467773,
                9.146459579467773
            ]
        },
        {
            "mesh" : 1,
            "name" : "CylinderUp",
            "rotation" : [
                0.7071068286895752,
                -0.7071068286895752,
                0,
                -4.636293837734229e-08
            ],
            "scale" : [
                7.552886009216309,
                13.808932304382324,
                12.007767677307129
            ],
            "translation" : [
                1.2788280248641968,
                0,
                0.024756163358688354
            ]
        },
        {
            "mesh" : 2,
            "name" : "CylinderDown",
            "rotation" : [
                0,
                0,
                -0.7071068286895752,
                0.7071068286895752
            ],
            "scale" : [
                7.552851676940918,
                13.808932304382324,
                12.007767677307129
            ],
            "translation" : [
                -1.3948063850402832,
                0,
                -0.328365296125412
            ]
        }
    ],
    "materials" : [
        {
            "doubleSided" : true,
            "emissiveFactor" : [
                1,
                1,
                0.6083416938781738
            ],
            "name" : "Material.006",
            "pbrMetallicRoughness" : {}
        },
        {
            "doubleSided" : true,
            "name" : "Material.005",
            "pbrMetallicRoughness" : {
                "baseColorFactor" : [
                    0,
                    0.006995412986725569,
                    0.026241226121783257,
                    1
                ],
                "metallicFactor" : 0,
                "roughnessFactor" : 0.5
            }
        },
        {
            "doubleSided" : true,
            "name" : "Material.004",
            "pbrMetallicRoughness" : {
                "baseColorFactor" : [
                    0,
                    0.061246056109666824,
                    0.17144113779067993,
                    1
                ],
                "metallicFactor" : 0,
                "roughnessFactor" : 0.5
            }
        }
    ],
    "meshes" : [
        {
            "name" : "Sphere",
            "primitives" : [
                {
                    "attributes" : {
                        "POSITION" : 0,
                        "NORMAL" : 1,
                        "TEXCOORD_0" : 2
                    },
                    "indices" : 3,
                    "material" : 0
                }
            ]
        },
        {
            "name" : "Cylinder",
            "primitives" : [
                {
                    "attributes" : {
                        "POSITION" : 4,
                        "NORMAL" : 5,
                        "TEXCOORD_0" : 6
                    },
                    "indices" : 7,
                    "material" : 1
                }
            ]
        },
        {
            "name" : "Cylinder.001",
            "primitives" : [
                {
                    "attributes" : {
                        "POSITION" : 8,
                        "NORMAL" : 9,
                        "TEXCOORD_0" : 10
                    },
                    "indices" : 7,
                    "material" : 2
                }
            ]
        }
    ],
    "accessors" : [
        {
            "bufferView" : 0,
            "componentType" : 5126,
            "count" : 1984,
            "max" : [
                0.30221858620643616,
                0.3022186756134033,
                0.302218496799469
            ],
            "min" : [
                -0.30221837759017944,
                -0.3022186756134033,
                -0.3022182881832123
            ],
            "type" : "VEC3"
        },
        {
            "bufferView" : 1,
            "componentType" : 5126,
            "count" : 1984,
            "type" : "VEC3"
        },
        {
            "bufferView" : 2,
            "componentType" : 5126,
            "count" : 1984,
            "type" : "VEC2"
        },
        {
            "bufferView" : 3,
            "componentType" : 5123,
            "count" : 2880,
            "type" : "SCALAR"
        },
        {
            "bufferView" : 4,
            "componentType" : 5126,
            "count" : 3904,
            "max" : [
                0.4038463830947876,
                0.9541112184524536,
                0.23546825349330902
            ],
            "min" : [
                -0.40384650230407715,
                -0.7603757977485657,
                -0.5956345796585083
            ],
            "type" : "VEC3"
        },
        {
            "bufferView" : 5,
            "componentType" : 5126,
            "count" : 3904,
            "type" : "VEC3"
        },
        {
            "bufferView" : 6,
            "componentType" : 5126,
            "count" : 3904,
            "type" : "VEC2"
        },
        {
            "bufferView" : 7,
            "componentType" : 5123,
            "count" : 5940,
            "type" : "SCALAR"
        },
        {
            "bufferView" : 8,
            "componentType" : 5126,
            "count" : 3904,
            "max" : [
                0.4038463830947876,
                0.9541112184524536,
                0.23546825349330902
            ],
            "min" : [
                -0.40384650230407715,
                -0.7603757977485657,
                -0.5956345796585083
            ],
            "type" : "VEC3"
        },
        {
            "bufferView" : 9,
            "componentType" : 5126,
            "count" : 3904,
            "type" : "VEC3"
        },
        {
            "bufferView" : 10,
            "componentType" : 5126,
            "count" : 3904,
            "type" : "VEC2"
        }
    ],
    "bufferViews" : [
        {
            "buffer" : 0,
            "byteLength" : 23808,
            "byteOffset" : 0
        },
        {
            "buffer" : 0,
            "byteLength" : 23808,
            "byteOffset" : 23808
        },
        {
            "buffer" : 0,
            "byteLength" : 15872,
            "byteOffset" : 47616
        },
        {
            "buffer" : 0,
            "byteLength" : 5760,
            "byteOffset" : 63488
        },
        {
            "buffer" : 0,
            "byteLength" : 46848,
            "byteOffset" : 69248
        },
        {
            "buffer" : 0,
            "byteLength" : 46848,
            "byteOffset" : 116096
        },
        {
            "buffer" : 0,
            "byteLength" : 31232,
            "byteOffset" : 162944
        },
        {
            "buffer" : 0,
            "byteLength" : 11880,
            "byteOffset" : 194176
        },
        {
            "buffer" : 0,
            "byteLength" : 46848,
            "byteOffset" : 206056
        },
        {
            "buffer" : 0,
            "byteLength" : 46848,
            "byteOffset" : 252904
        },
        {
            "buffer" : 0,
            "byteLength" : 31232,
            "byteOffset" : 299752
        }
    ],
    "buffers" : [
        {
            "byteLength" : 330984,
            "uri" : "data:application/octet-stream;base64,"
        }
    ]
}
