<?xml version="1.0" encoding="UTF-8"?>
<!DOCTYPE svg PUBLIC "-//W3C//DTD SVG 1.1//EN" "http://www.w3.org/Graphics/SVG/1.1/DTD/svg11.dtd">
<!-- Creator: CorelDRAW 2019 (64 Bit) -->
<svg xmlns="http://www.w3.org/2000/svg" xml:space="preserve" width="125px" height="125px" version="1.1" style="shape-rendering:geometricPrecision; text-rendering:geometricPrecision; image-rendering:optimizeQuality; fill-rule:evenodd; clip-rule:evenodd"
viewBox="0 0 125 125"
 xmlns:xlink="http://www.w3.org/1999/xlink">
 <defs>
  <style type="text/css">
   <![CDATA[
    .fil2 {fill:url(#id0)}
    .fil1 {fill:url(#id1)}
    .fil0 {fill:url(#id2)}
   ]]>
  </style>
  <linearGradient id="id0" gradientUnits="userSpaceOnUse" x1="58.39" y1="83.36" x2="13.05" y2="98.33">
   <stop offset="0" style="stop-opacity:1; stop-color:white"/>
   <stop offset="0.0117647" style="stop-opacity:0.478431; stop-color:white"/>
   <stop offset="1" style="stop-opacity:0.478431; stop-color:white"/>
  </linearGradient>
  <linearGradient id="id1" gradientUnits="userSpaceOnUse" xlink:href="#id0" x1="65.51" y1="43.45" x2="110.99" y2="28.91">
  </linearGradient>
  <radialGradient id="id2" gradientUnits="userSpaceOnUse" gradientTransform="matrix(1.00001 -0 -0 1 0 0)" cx="62" cy="63" r="120.91" fx="62" fy="63">
   <stop offset="0" style="stop-opacity:1; stop-color:#FF9B05"/>
   <stop offset="1" style="stop-opacity:1; stop-color:#FF6600"/>
  </radialGradient>
 </defs>
 <g id="Camada_x0020_1">
  <metadata id="CorelCorpID_0Corel-Layer"/>
  <g id="_2398685530448">
   <g>
    <path class="fil0" d="M62 125.5c-34.52,0 -62.5,-27.98 -62.5,-62.5 0,-34.52 27.98,-62.5 62.5,-62.5 34.52,0 62.5,27.98 62.5,62.5 0,34.52 -27.98,62.5 -62.5,62.5zm0 -69.28c3.79,0 6.78,2.99 6.78,6.78 0,3.79 -2.99,6.78 -6.78,6.78 -3.79,0 -6.78,-2.99 -6.78,-6.78 0,-3.79 2.99,-6.78 6.78,-6.78z"/>
    <path class="fil1" d="M68.69 53.38l23.94 -37.92c11.38,7.19 19.87,18.15 23.97,30.98l-42.71 13.66c-0.93,-2.9 -2.82,-5.22 -5.2,-6.72z"/>
    <path class="fil2" d="M55.13 73.47l-23.58 38.14c-11.45,-7.08 -20.05,-17.97 -24.27,-30.75l42.58 -14.07c0.95,2.89 2.87,5.19 5.27,6.68z"/>
   </g>
  </g>
 </g>
</svg>
